<svg xmlns="http://www.w3.org/2000/svg" viewBox="0 0 24 24" width="24" height="24" color="currentColor" fill="none">
    <defs />
    <path fill="currentColor" d="M10.556,1.25 C12.394,1.25 13.85,1.25 14.989,1.403 C16.161,1.561 17.11,1.893 17.859,2.641 C18.565,3.348 18.901,4.233 19.069,5.316 C20.201,5.48 21.121,5.816 21.852,6.547 C22.604,7.299 22.938,8.253 23.096,9.432 C23.25,10.578 23.25,12.043 23.25,13.892 L23.25,14.005 C23.25,15.855 23.25,17.32 23.096,18.466 C22.938,19.645 22.604,20.599 21.852,21.351 C21.1,22.103 20.146,22.437 18.966,22.596 C17.82,22.75 16.355,22.75 14.506,22.75 L14.393,22.75 C12.543,22.75 11.078,22.75 9.932,22.596 C8.753,22.437 7.799,22.103 7.047,21.351 C6.317,20.621 5.981,19.701 5.817,18.569 C4.733,18.401 3.848,18.065 3.141,17.359 C2.393,16.61 2.061,15.661 1.903,14.489 C1.75,13.35 1.75,11.894 1.75,10.056 L1.75,9.944 C1.75,8.106 1.75,6.65 1.903,5.511 C2.061,4.339 2.393,3.39 3.141,2.641 C3.89,1.893 4.839,1.561 6.011,1.403 C7.15,1.25 8.606,1.25 10.444,1.25 Z M4.202,3.702 C3.779,4.125 3.525,4.705 3.39,5.711 C3.252,6.739 3.25,8.093 3.25,10 L3.25,10.291 C3.621,10.265 3.994,10.252 4.366,10.252 C7.156,10.202 9.892,10.962 12.086,12.417 C13.825,13.57 15.145,15.108 15.888,16.86 C16.273,16.721 16.56,16.536 16.798,16.298 C17.221,15.875 17.475,15.295 17.61,14.289 C17.748,13.262 17.75,11.907 17.75,10 C17.75,8.093 17.748,6.739 17.61,5.711 C17.475,4.705 17.221,4.125 16.798,3.702 C16.375,3.279 15.795,3.025 14.789,2.89 C13.762,2.752 12.407,2.75 10.5,2.75 C8.593,2.75 7.239,2.752 6.211,2.89 C5.205,3.025 4.625,3.279 4.202,3.702 Z M19.21,6.861 C19.25,7.743 19.25,8.765 19.25,9.944 L19.25,10.057 C19.25,11.894 19.25,13.35 19.097,14.489 C18.939,15.661 18.607,16.61 17.859,17.359 C17.11,18.107 16.161,18.439 14.989,18.597 C13.85,18.75 12.394,18.75 10.557,18.75 L10.443,18.75 C9.265,18.75 8.243,18.75 7.361,18.71 C7.509,19.458 7.747,19.93 8.108,20.291 C8.535,20.718 9.119,20.973 10.132,21.109 C11.167,21.249 12.53,21.25 14.449,21.25 C16.368,21.25 17.732,21.249 18.766,21.109 C19.779,20.973 20.364,20.718 20.791,20.291 C21.218,19.864 21.473,19.279 21.61,18.266 C21.749,17.232 21.75,15.868 21.75,13.949 C21.75,12.03 21.749,10.666 21.61,9.632 C21.473,8.619 21.218,8.034 20.791,7.607 C20.431,7.247 19.958,7.009 19.21,6.861 Z M11.257,13.667 C9.333,12.392 6.898,11.706 4.386,11.752 L4.371,11.752 C3.998,11.752 3.626,11.766 3.256,11.795 C3.268,12.807 3.3,13.618 3.39,14.289 C3.525,15.295 3.779,15.875 4.202,16.298 C4.625,16.721 5.205,16.975 6.211,17.11 C7.239,17.248 8.593,17.25 10.5,17.25 C12.162,17.25 13.405,17.249 14.377,17.157 C13.74,15.817 12.676,14.608 11.257,13.667 Z M13.5,6 L13.509,6 C14.061,6 14.509,6.448 14.509,7 C14.509,7.552 14.061,8 13.509,8 L13.5,8 C12.948,8 12.5,7.552 12.5,7 C12.5,6.448 12.948,6 13.5,6 Z" />
</svg>