<svg xmlns="http://www.w3.org/2000/svg" viewBox="0 0 24 24" width="24" height="24" color="currentColor" fill="none">
    <defs />
    <path fill="currentColor" d="M6.234,2.25 L17.818,2.25 C18.588,2.25 19.243,2.25 19.759,2.32 C20.305,2.395 20.827,2.563 21.227,3.003 C21.631,3.447 21.741,3.982 21.749,4.529 C21.757,5.04 21.676,5.675 21.58,6.415 L21.573,6.469 C21.54,6.73 21.489,6.984 21.384,7.237 C21.277,7.495 21.13,7.714 20.946,7.932 C19.967,9.096 18.145,11.199 15.581,13.114 C15.54,13.145 15.488,13.219 15.478,13.329 C15.229,16.082 15.009,17.538 14.851,18.382 C14.68,19.295 13.984,19.926 13.384,20.361 C13.07,20.589 12.737,20.794 12.44,20.974 C12.416,20.989 12.392,21.003 12.369,21.017 C12.092,21.186 11.856,21.329 11.659,21.469 C11.118,21.851 10.495,21.824 10.018,21.546 C9.568,21.284 9.252,20.806 9.188,20.266 C9.047,19.08 8.793,16.757 8.512,13.323 C8.503,13.212 8.486,13.181 8.484,13.178 C8.483,13.176 8.481,13.171 8.472,13.162 C8.463,13.152 8.444,13.134 8.408,13.107 C5.85,11.194 4.032,9.094 3.054,7.932 C2.871,7.715 2.719,7.501 2.611,7.24 C2.505,6.985 2.46,6.731 2.426,6.468 C2.424,6.45 2.422,6.433 2.42,6.415 L2.42,6.415 C2.324,5.675 2.243,5.04 2.251,4.529 C2.259,3.982 2.369,3.447 2.773,3.003 C3.173,2.563 3.695,2.395 4.241,2.32 C4.757,2.25 5.411,2.25 6.182,2.25 L6.234,2.25 Z M4.444,3.807 C4.06,3.859 3.944,3.944 3.883,4.012 C3.826,4.075 3.756,4.187 3.75,4.552 C3.744,4.942 3.81,5.468 3.914,6.277 C3.943,6.502 3.968,6.598 3.996,6.665 C4.022,6.727 4.068,6.807 4.201,6.966 C5.159,8.104 6.888,10.098 9.307,11.905 C9.501,12.051 9.679,12.231 9.808,12.473 C9.935,12.711 9.987,12.959 10.007,13.2 C10.286,16.616 10.539,18.92 10.678,20.09 C10.682,20.125 10.695,20.16 10.715,20.191 C10.735,20.222 10.758,20.241 10.773,20.25 C10.775,20.251 10.777,20.252 10.778,20.253 C10.782,20.251 10.787,20.248 10.793,20.244 C11.035,20.073 11.316,19.902 11.581,19.741 C11.608,19.725 11.634,19.709 11.66,19.693 C11.959,19.511 12.245,19.334 12.504,19.147 C13.051,18.75 13.319,18.415 13.377,18.106 C13.523,17.324 13.737,15.918 13.984,13.194 C14.029,12.695 14.274,12.219 14.684,11.913 C17.107,10.102 18.839,8.106 19.799,6.966 C19.915,6.827 19.967,6.738 19.999,6.662 C20.032,6.581 20.06,6.474 20.086,6.277 C20.19,5.468 20.256,4.942 20.25,4.552 C20.244,4.187 20.174,4.075 20.117,4.012 C20.056,3.944 19.94,3.859 19.556,3.807 C19.153,3.752 18.603,3.75 17.766,3.75 L6.234,3.75 C5.397,3.75 4.847,3.752 4.444,3.807 Z" />
</svg>