<svg xmlns="http://www.w3.org/2000/svg" viewBox="0 0 24 24" width="24" height="24" color="currentColor" fill="none">
    <defs />
    <path fill="currentColor" d="M11.144,2.335 L14.507,4.018 C14.742,4.135 14.886,4.206 14.987,4.25 L15,4.25 C15.132,4.25 15.257,4.284 15.365,4.345 C15.474,4.351 15.638,4.353 15.921,4.353 L18.053,4.353 C18.951,4.353 19.701,4.353 20.297,4.435 C20.929,4.523 21.497,4.715 21.952,5.183 C22.404,5.647 22.587,6.223 22.67,6.863 C22.75,7.471 22.75,8.238 22.75,9.163 L22.75,10 C22.75,10.414 22.414,10.75 22,10.75 C21.586,10.75 21.25,10.414 21.25,10 L21.25,9.217 C21.25,8.227 21.249,7.558 21.183,7.057 C21.12,6.576 21.011,6.366 20.876,6.228 C20.745,6.093 20.549,5.984 20.092,5.921 C19.611,5.855 18.965,5.853 18,5.853 L15.921,5.853 L15.859,5.853 L15.75,5.853 L15.75,9.5 C15.75,9.914 15.414,10.25 15,10.25 C14.586,10.25 14.25,9.914 14.25,9.5 L14.25,5.563 C14.137,5.51 14.019,5.451 13.892,5.387 L13.892,5.387 L13.892,5.387 L13.836,5.359 L10.504,3.692 C9.796,3.338 9.311,3.096 8.911,2.94 C8.855,2.918 8.801,2.899 8.75,2.881 L8.75,16.319 C9.253,16.409 9.714,16.602 10.119,16.801 C10.342,16.911 10.558,17.028 10.759,17.137 L10.79,17.154 C10.983,17.259 11.161,17.356 11.336,17.443 C11.706,17.628 11.856,18.079 11.671,18.449 C11.485,18.82 11.035,18.97 10.664,18.785 C10.466,18.685 10.267,18.577 10.08,18.475 L10.08,18.475 L10.08,18.475 L10.08,18.475 L10.043,18.455 C9.84,18.345 9.648,18.241 9.456,18.147 C9.07,17.956 8.728,17.827 8.403,17.782 C7.659,17.68 7.052,18.035 6.119,18.579 L6.119,18.579 L6.062,18.612 C5.444,18.974 4.929,19.274 4.503,19.467 C4.072,19.663 3.604,19.813 3.109,19.724 C2.575,19.628 2.096,19.339 1.757,18.916 C1.446,18.528 1.343,18.048 1.296,17.57 C1.25,17.096 1.25,16.49 1.25,15.756 L1.25,7.464 C1.25,6.909 1.25,6.44 1.287,6.052 C1.327,5.64 1.413,5.26 1.619,4.896 C1.826,4.531 2.107,4.264 2.439,4.023 C2.751,3.796 3.149,3.564 3.617,3.29 L3.647,3.273 L4.905,2.538 L4.906,2.538 C5.553,2.16 6.083,1.851 6.543,1.637 C7.025,1.413 7.481,1.268 7.988,1.252 C8.495,1.235 8.959,1.35 9.454,1.542 C9.927,1.726 10.475,2 11.144,2.335 Z M12.653,14.395 C13.48,12.464 15.445,11.25 17.5,11.25 C19.555,11.25 21.521,12.464 22.347,14.395 C23.119,16.2 22.691,17.749 21.841,19.037 C21.149,20.085 20.138,21.016 19.265,21.819 L19.265,21.819 C19.112,21.961 18.963,22.098 18.821,22.231 C18.463,22.566 17.989,22.75 17.5,22.75 C17.011,22.75 16.537,22.566 16.179,22.231 L16.177,22.229 C16.028,22.088 15.87,21.942 15.708,21.792 C14.844,20.994 13.845,20.071 13.161,19.037 C12.309,17.75 11.88,16.202 12.653,14.395 Z M7.176,2.997 C6.786,3.178 6.316,3.452 5.632,3.851 L4.404,4.568 C3.897,4.864 3.564,5.059 3.321,5.236 C3.091,5.403 2.989,5.52 2.924,5.635 C2.859,5.751 2.809,5.904 2.78,6.196 C2.751,6.504 2.75,6.9 2.75,7.499 L2.75,15.716 C2.75,16.5 2.751,17.032 2.789,17.424 C2.828,17.82 2.896,17.938 2.928,17.978 C3.044,18.123 3.203,18.217 3.375,18.247 C3.41,18.254 3.532,18.261 3.883,18.102 C4.23,17.944 4.678,17.684 5.342,17.296 C5.395,17.265 5.448,17.233 5.504,17.201 C5.996,16.911 6.578,16.568 7.25,16.389 L7.25,2.963 C7.226,2.974 7.201,2.985 7.176,2.997 Z M17.5,12.75 C16.012,12.75 14.61,13.636 14.033,14.985 C13.508,16.211 13.761,17.225 14.412,18.209 C14.987,19.078 15.824,19.854 16.69,20.656 L16.69,20.656 C16.861,20.815 17.033,20.975 17.205,21.137 C17.281,21.207 17.386,21.25 17.5,21.25 C17.615,21.25 17.72,21.207 17.796,21.136 C17.956,20.986 18.118,20.836 18.278,20.688 C19.156,19.878 20.008,19.091 20.589,18.211 C21.24,17.225 21.491,16.21 20.968,14.985 C20.39,13.636 18.988,12.75 17.5,12.75 Z M17.5,15.5 L17.509,15.5 C18.061,15.5 18.509,15.948 18.509,16.5 C18.509,17.052 18.061,17.5 17.509,17.5 L17.5,17.5 C16.948,17.5 16.5,17.052 16.5,16.5 C16.5,15.948 16.948,15.5 17.5,15.5 Z" />
</svg>