<?xml version="1.0" encoding="UTF-8" standalone="no"?>
<!DOCTYPE svg PUBLIC "-//W3C//DTD SVG 1.1//EN" "http://www.w3.org/Graphics/SVG/1.1/DTD/svg11.dtd">
<svg width="100%" height="100%" viewBox="0 0 32 11" version="1.1" xmlns="http://www.w3.org/2000/svg" xmlns:xlink="http://www.w3.org/1999/xlink" xml:space="preserve" xmlns:serif="http://www.serif.com/" style="fill-rule:evenodd;clip-rule:evenodd;stroke-linecap:round;stroke-linejoin:round;stroke-miterlimit:1.5;">
    <g transform="matrix(1,0,0,1,-2.76669,-1.08963)">
        <g transform="matrix(1,0,0,1,7.74675,11.3481)">
            <g transform="matrix(0.99735,0,0,0.99735,-29.8136,-32.5674)">
                <text x="28.312px" y="28.247px" style="font-family:'IM_FELL_French_Canon_Roman', 'IM FELL French Canon';font-size:5px;">L</text>
                <text x="31.42px" y="27.747px" style="font-family:'IM_FELL_French_Canon_Roman', 'IM FELL French Canon';font-size:5px;">it</text>
                <text x="34.85px" y="28.247px" style="font-family:'IM_FELL_French_Canon_Roman', 'IM FELL French Canon';font-size:5px;">t</text>
                <g transform="matrix(5,0,0,5,40.6529,27.7472)">
                </g>
                <text x="36.735px" y="27.747px" style="font-family:'IM_FELL_French_Canon_Roman', 'IM FELL French Canon';font-size:5px;">le</text>
            </g>
        </g>
        <g transform="matrix(1,0,0,1,7.74675,11.3481)">
            <g transform="matrix(0.99735,0,0,0.99735,-33.0243,-28.3194)">
                <text x="28.312px" y="28.247px" style="font-family:'IM_FELL_French_Canon_Roman', 'IM FELL French Canon';font-size:6px;">A</text>
                <text x="32.383px" y="28.747px" style="font-family:'IM_FELL_French_Canon_Roman', 'IM FELL French Canon';font-size:6px;">d<tspan x="35.782px " y="28.747px ">v</tspan></text>
                <text x="38.848px" y="28.247px" style="font-family:'IM_FELL_French_Canon_Roman', 'IM FELL French Canon';font-size:6px;">e<tspan x="41.996px " y="28.247px ">n</tspan></text>
                <text x="45.615px" y="27.747px" style="font-family:'IM_FELL_French_Canon_Roman', 'IM FELL French Canon';font-size:6px;">t</text>
                <text x="47.937px" y="28.247px" style="font-family:'IM_FELL_French_Canon_Roman', 'IM FELL French Canon';font-size:6px;">u</text>
                <text x="51.513px" y="28.747px" style="font-family:'IM_FELL_French_Canon_Roman', 'IM FELL French Canon';font-size:6px;">r<tspan x="54.209px " y="28.747px ">e</tspan></text>
                <g transform="matrix(6,0,0,6,59.5718,28.2472)">
                </g>
                <text x="57.357px" y="28.247px" style="font-family:'IM_FELL_French_Canon_Roman', 'IM FELL French Canon';font-size:6px;">s</text>
            </g>
        </g>
        <g transform="matrix(1,0,0,1,7.74675,11.3481)">
            <g transform="matrix(0.80958,-0.0846742,0.0823254,0.787123,-24.1709,-35.854)">
                <g transform="matrix(1.02859,0,0,1.16231,-9.42448,-19.5243)">
                    <path d="M49.06,50.76C48.923,50.733 48.807,51.027 48.787,51.228C48.711,52.007 48.635,52.825 48.559,53.63C48.551,54.279 48.596,54.622 48.955,54.862C49.297,55.091 50.076,55.073 50.298,55.073L51.244,55.072C51.848,55.072 52.45,55.086 52.647,54.748C52.82,54.451 52.725,53.774 52.71,53.626C52.594,52.501 52.525,51.64 52.453,51.13C52.427,50.948 52.285,50.796 52.186,50.812C51.877,50.863 51.748,50.845 51.321,50.848L50.244,50.845C49.543,50.83 49.265,50.8 49.06,50.76Z" style="fill:none;stroke:black;stroke-width:0.17px;"/>
                </g>
                <g transform="matrix(1.02859,0,0,0.570618,-9.42448,8.15064)">
                    <path d="M49.008,52.12C48.879,52.329 48.858,52.614 48.797,52.966C48.775,53.192 48.768,53.204 48.733,53.514C48.693,53.861 48.605,54.365 48.797,54.718C48.96,55.019 50.076,55.073 50.298,55.073L51.244,55.072C51.848,55.072 52.256,55.113 52.453,54.774C52.626,54.478 52.587,54.015 52.572,53.868C52.538,53.546 52.502,53.178 52.453,52.862C52.425,52.681 52.334,52.309 52.157,52.108C52.051,51.988 51.795,51.893 51.372,51.89L49.94,51.88C49.416,51.877 49.159,51.875 49.008,52.12Z" style="fill:none;stroke:black;stroke-width:0.22px;"/>
                </g>
                <g transform="matrix(1.34374,0.131729,-0.0872712,0.774666,-20.8017,-5.95826)">
                    <path d="M49.794,50.425C49.794,50.354 49.762,50.297 49.722,50.297L49.579,50.297C49.539,50.297 49.507,50.354 49.507,50.425L49.507,53.652C49.507,53.722 49.539,53.779 49.579,53.779L49.722,53.779C49.762,53.779 49.794,53.722 49.794,53.652L49.794,50.425Z" style="fill:none;stroke:black;stroke-width:0.17px;"/>
                </g>
                <g transform="matrix(1.47331,-0.0731701,0.044004,0.771009,-31.4995,4.43433)">
                    <path d="M49.794,50.438C49.794,50.36 49.762,50.297 49.722,50.297L49.579,50.297C49.539,50.297 49.507,50.36 49.507,50.438L49.507,53.638C49.507,53.716 49.539,53.779 49.579,53.779L49.722,53.779C49.762,53.779 49.794,53.716 49.794,53.638L49.794,50.438Z" style="fill:none;stroke:black;stroke-width:0.16px;"/>
                </g>
                <g transform="matrix(0.834015,0,0,0.975023,0.525029,-10.0607)">
                    <path d="M49.66,52.461C49.775,52.348 49.951,52.345 50.243,52.345L50.819,52.345C51.024,52.345 51.216,52.34 51.351,52.455C51.506,52.587 51.514,52.866 51.521,53.02L51.607,54.202L49.414,54.202L49.523,52.836C49.536,52.703 49.57,52.549 49.66,52.461Z" style="fill:none;stroke:black;stroke-width:0.21px;"/>
                </g>
                <g transform="matrix(1,0,0,1,-7.77671,-11.3726)">
                    <path d="M48.336,53.833L48.955,54.037C49.053,54.073 49.465,54.175 49.569,54.189C49.683,54.205 49.896,54.199 50.073,54.199L50.717,54.189C50.853,54.187 51.244,54.187 51.347,54.169C51.458,54.15 51.705,54.115 51.803,54.086L52.521,53.893" style="fill:none;stroke:black;stroke-width:0.19px;"/>
                </g>
                <g transform="matrix(0.962384,0,0,0.900147,-5.74116,-5.97149)">
                    <path d="M52.49,53.655L52.846,53.691C52.958,53.709 53.096,53.731 53.147,53.797C53.198,53.863 53.264,54.129 53.314,54.388L53.405,55C53.422,55.174 53.453,55.319 53.356,55.479C53.272,55.62 53.127,55.653 52.902,55.684C52.766,55.703 52.592,55.696 52.43,55.698C52.548,55.433 52.573,54.951 52.545,54.578C52.532,54.412 52.504,53.97 52.49,53.655Z" style="fill:none;stroke:black;stroke-width:0.2px;"/>
                </g>
                <g transform="matrix(-0.962384,0,0,0.900147,91.0698,-5.97788)">
                    <path d="M52.478,53.652L52.843,53.683C52.949,53.689 53.148,53.708 53.186,53.746C53.237,53.796 53.264,54.129 53.314,54.388L53.405,55C53.422,55.174 53.442,55.381 53.346,55.502C53.244,55.629 53.108,55.677 52.852,55.686C52.715,55.691 52.535,55.713 52.26,55.653C52.412,55.429 52.498,55.157 52.52,54.592C52.526,54.412 52.531,54.063 52.478,53.652Z" style="fill:none;stroke:black;stroke-width:0.2px;"/>
                </g>
                <g transform="matrix(1,0,0,1,-7.82164,-11.3481)">
                    <path d="M49.387,55.782C49.654,55.53 49.88,55.34 50.407,55.341C51.017,55.343 51.289,55.626 51.516,55.822L49.387,55.782" style="fill:none;stroke:black;stroke-width:0.19px;"/>
                </g>
                <g transform="matrix(1,0,0,1,-7.74675,-11.3481)">
                    <path d="M49.893,49.083C49.877,48.899 49.817,48.746 49.941,48.638C50.05,48.543 50.751,48.526 50.888,48.636C51.032,48.75 50.984,48.923 50.953,49.103L49.893,49.083" style="fill:none;stroke:black;stroke-width:0.18px;"/>
                </g>
            </g>
        </g>
    </g>
</svg>
