<svg xmlns="http://www.w3.org/2000/svg" xml:space="preserve" style="fill-rule:evenodd;clip-rule:evenodd;stroke-linecap:round;stroke-linejoin:round;stroke-miterlimit:1.5" viewBox="0 0 17 17"><circle cx="73.32" cy="10.765" r="7.618" style="fill:#fff;stroke:#fff;stroke-width:.1px" transform="translate(-68.68 -3.242)scale(1.04608)"/><path d="M49.06 50.76c-.137-.027-.253.267-.273.468-.076.779-.152 1.597-.228 2.402-.008.649.037.992.396 1.232.342.229 1.121.211 1.343.211l.946-.001c.604 0 1.206.014 1.403-.324.173-.297.078-.974.063-1.122-.116-1.125-.185-1.986-.257-2.496-.026-.182-.168-.334-.267-.318-.309.051-.438.033-.865.036l-1.077-.003c-.701-.015-.979-.045-1.184-.085" style="fill:none;stroke:#000;stroke-width:.22px" transform="matrix(1.2964 -.13559 .14897 1.4243 -65.15 -59.192)"/><path d="M49.008 52.12c-.129.209-.15.494-.211.846-.022.226-.029.238-.064.548-.04.347-.128.851.064 1.204.163.301 1.279.355 1.501.355l.946-.001c.604 0 1.012.041 1.209-.298.173-.296.134-.759.119-.906-.034-.322-.07-.69-.119-1.006-.028-.181-.119-.553-.296-.754-.106-.12-.362-.215-.785-.218l-1.432-.01c-.524-.003-.781-.005-.932.24" style="fill:none;stroke:#000;stroke-width:.29px" transform="matrix(1.2964 -.13559 .07313 .69924 -61.603 -25.279)"/><path d="M49.794 50.425c0-.071-.032-.128-.072-.128h-.143c-.04 0-.072.057-.072.128v3.227c0 .07.032.127.072.127h.143c.04 0 .072-.057.072-.127z" style="fill:none;stroke:#000;stroke-width:.22px" transform="matrix(1.71048 -.01571 -.0107 .96078 -77.751 -41.068)"/><path d="M49.794 50.438c0-.078-.032-.141-.072-.141h-.143c-.04 0-.072.063-.072.141v3.2c0 .078.032.141.072.141h.143c.04 0 .072-.063.072-.141z" style="fill:none;stroke:#000;stroke-width:.2px" transform="matrix(1.84752 -.28388 .15428 .939 -89.902 -26.923)"/><path d="M49.66 52.461c.115-.113.291-.116.583-.116h.576c.205 0 .397-.005.532.11.155.132.163.411.17.565l.086 1.182h-2.193l.109-1.366c.013-.133.047-.287.137-.375" style="fill:none;stroke:#000;stroke-width:.27px" transform="matrix(1.05116 -.10994 .12496 1.1948 -51.398 -48.906)"/><path d="m48.336 53.833.619.204c.098.036.51.138.614.152.114.016.327.01.504.01l.644-.01c.136-.002.527-.002.63-.02.111-.019.358-.054.456-.083l.718-.193" style="fill:none;stroke:#000;stroke-width:.24px" transform="matrix(1.26036 -.13182 .12817 1.2254 -62.029 -49.42)"/><path d="m52.49 53.655.356.036c.112.018.25.04.301.106s.117.332.167.591l.091.612c.017.174.048.319-.049.479-.084.141-.229.174-.454.205-.136.019-.31.012-.472.014.118-.265.143-.747.115-1.12a36 36 0 0 1-.055-.923" style="fill:none;stroke:#000;stroke-width:.26px" transform="matrix(1.21295 -.12686 .11537 1.10304 -58.771 -43.07)"/><path d="m52.478 53.652.365.031c.106.006.305.025.343.063.051.05.078.383.128.642l.091.612c.017.174.037.381-.059.502-.102.127-.238.175-.494.184-.137.005-.317.027-.592-.033.152-.224.238-.496.26-1.061.006-.18.011-.529-.042-.94" style="fill:none;stroke:#000;stroke-width:.26px" transform="matrix(-1.21295 .12686 .11537 1.10304 63.245 -55.839)"/><path d="M49.387 55.782c.267-.252.493-.442 1.02-.441.61.002.882.285 1.109.481z" style="fill:none;stroke:#000;stroke-width:.24px" transform="matrix(1.26036 -.13182 .12817 1.2254 -62.082 -49.384)"/><path d="M49.893 49.083c-.016-.184-.076-.337.048-.445.109-.095.81-.112.947-.002.144.114.096.287.065.467z" style="fill:none;stroke:#000;stroke-width:.24px" transform="matrix(1.26036 -.13182 .12817 1.2254 -61.988 -49.394)"/><text x="85.772" y="30.031" style="font-family:&quot;IM_FELL_French_Canon_Roman&quot;,&quot;IM FELL French Canon&quot;;font-size:3.5px" transform="rotate(-29.479 -4.703 179.444)scale(1.04607)">L</text><text x="87.75" y="29.046" style="font-family:&quot;IM_FELL_French_Canon_Roman&quot;,&quot;IM FELL French Canon&quot;;font-size:3.5px" transform="rotate(-7.253 -166.538 686.289)scale(1.04607)">i</text><text x="88.867" y="28.902" style="font-family:&quot;IM_FELL_French_Canon_Roman&quot;,&quot;IM FELL French Canon&quot;;font-size:3.5px" transform="rotate(9.058 223.326 -518.273)scale(1.04607)">t</text><text x="90.207" y="29.137" style="font-family:&quot;IM_FELL_French_Canon_Roman&quot;,&quot;IM FELL French Canon&quot;;font-size:3.5px" transform="rotate(27.483 107.922 -156.096)scale(1.04607)">t</text><text x="91.392" y="29.8" style="font-family:&quot;IM_FELL_French_Canon_Roman&quot;,&quot;IM FELL French Canon&quot;;font-size:3.5px" transform="rotate(43.464 87.53 -88.378)scale(1.04607)">l</text><text x="92.202" y="30.505" style="font-family:&quot;IM_FELL_French_Canon_Roman&quot;,&quot;IM FELL French Canon&quot;;font-size:3.5px" transform="rotate(63.474 76.17 -49.814)scale(1.04607)">e</text><text x="84.443" y="32.895" style="font-family:&quot;IM_FELL_French_Canon_Roman&quot;,&quot;IM FELL French Canon&quot;;font-size:3.5px" transform="matrix(.19384 1.02795 -1.0144 .26572 17.479 -87.185)">A</text><text x="84.634" y="34.438" style="font-family:&quot;IM_FELL_French_Canon_Roman&quot;,&quot;IM FELL French Canon&quot;;font-size:3.5px" transform="matrix(.53119 .90117 -.86402 .5942 -14.073 -85.773)">d</text><text x="85.266" y="35.678" style="font-family:&quot;IM_FELL_French_Canon_Roman&quot;,&quot;IM FELL French Canon&quot;;font-size:3.5px" transform="matrix(.77198 .70591 -.65193 .82134 -40.138 -76.557)">v</text><text x="86.095" y="36.547" style="font-family:&quot;IM_FELL_French_Canon_Roman&quot;,&quot;IM FELL French Canon&quot;;font-size:3.5px" transform="matrix(.93093 .4771 -.412 .9643 -61.078 -62.043)">e</text><text x="87.159" y="37.213" style="font-family:&quot;IM_FELL_French_Canon_Roman&quot;,&quot;IM FELL French Canon&quot;;font-size:3.5px" transform="matrix(1.03453 .15493 -.08259 1.04537 -80.981 -37.19)">n</text><text x="88.651" y="37.454" style="font-family:&quot;IM_FELL_French_Canon_Roman&quot;,&quot;IM FELL French Canon&quot;;font-size:3.5px" transform="matrix(1.04001 -.1124 .18512 1.03215 -90.654 -13.266)">t</text><text x="89.414" y="37.479" style="font-family:&quot;IM_FELL_French_Canon_Roman&quot;,&quot;IM FELL French Canon&quot;;font-size:3.5px" transform="matrix(.97712 -.3735 .44182 .951 -93.88 12.964)">u</text><text x="90.818" y="36.982" style="font-family:&quot;IM_FELL_French_Canon_Roman&quot;,&quot;IM FELL French Canon&quot;;font-size:3.5px" transform="matrix(.82145 -.64767 .70512 .77616 -88.374 44.283)">r</text><text x="91.64" y="36.443" style="font-family:&quot;IM_FELL_French_Canon_Roman&quot;,&quot;IM FELL French Canon&quot;;font-size:3.5px" transform="matrix(.63409 -.83198 .87632 .5759 -76.365 68.256)">e</text><text x="92.417" y="35.484" style="font-family:&quot;IM_FELL_French_Canon_Roman&quot;,&quot;IM FELL French Canon&quot;;font-size:3.5px" transform="matrix(.42097 -.95762 .98706 .35401 -59.107 87.272)">s</text></svg>