<svg xmlns="http://www.w3.org/2000/svg" xml:space="preserve" style="fill-rule:evenodd;clip-rule:evenodd;stroke-linecap:round;stroke-linejoin:round;stroke-miterlimit:1.5" viewBox="0 0 32 11"><text x="28.312" y="28.247" style="font-family:&quot;IM_FELL_French_Canon_Roman&quot;,&quot;IM FELL French Canon&quot;;font-size:5px" transform="translate(-24.834 -22.309)scale(.99735)">L</text><text x="31.42" y="27.747" style="font-family:&quot;IM_FELL_French_Canon_Roman&quot;,&quot;IM FELL French Canon&quot;;font-size:5px" transform="translate(-24.834 -22.309)scale(.99735)">it</text><text x="34.85" y="28.247" style="font-family:&quot;IM_FELL_French_Canon_Roman&quot;,&quot;IM FELL French Canon&quot;;font-size:5px" transform="translate(-24.834 -22.309)scale(.99735)">t</text><text x="36.735" y="27.747" style="font-family:&quot;IM_FELL_French_Canon_Roman&quot;,&quot;IM FELL French Canon&quot;;font-size:5px" transform="translate(-24.834 -22.309)scale(.99735)">le</text><text x="28.312" y="28.247" style="font-family:&quot;IM_FELL_French_Canon_Roman&quot;,&quot;IM FELL French Canon&quot;;font-size:6px" transform="translate(-28.044 -18.06)scale(.99735)">A</text><text x="32.383" y="28.747" style="font-family:&quot;IM_FELL_French_Canon_Roman&quot;,&quot;IM FELL French Canon&quot;;font-size:6px" transform="translate(-28.044 -18.06)scale(.99735)">d<tspan x="35.782" y="28.747">v</tspan></text><text x="38.848" y="28.247" style="font-family:&quot;IM_FELL_French_Canon_Roman&quot;,&quot;IM FELL French Canon&quot;;font-size:6px" transform="translate(-28.044 -18.06)scale(.99735)">e<tspan x="41.996" y="28.247">n</tspan></text><text x="45.615" y="27.747" style="font-family:&quot;IM_FELL_French_Canon_Roman&quot;,&quot;IM FELL French Canon&quot;;font-size:6px" transform="translate(-28.044 -18.06)scale(.99735)">t</text><text x="47.937" y="28.247" style="font-family:&quot;IM_FELL_French_Canon_Roman&quot;,&quot;IM FELL French Canon&quot;;font-size:6px" transform="translate(-28.044 -18.06)scale(.99735)">u</text><text x="51.513" y="28.747" style="font-family:&quot;IM_FELL_French_Canon_Roman&quot;,&quot;IM FELL French Canon&quot;;font-size:6px" transform="translate(-28.044 -18.06)scale(.99735)">r<tspan x="54.209" y="28.747">e</tspan></text><text x="57.357" y="28.247" style="font-family:&quot;IM_FELL_French_Canon_Roman&quot;,&quot;IM FELL French Canon&quot;;font-size:6px" transform="translate(-28.044 -18.06)scale(.99735)">s</text><path d="M49.06 50.76c-.137-.027-.253.267-.273.468-.076.779-.152 1.597-.228 2.402-.008.649.037.992.396 1.232.342.229 1.121.211 1.343.211l.946-.001c.604 0 1.206.014 1.403-.324.173-.297.078-.974.063-1.122-.116-1.125-.185-1.986-.257-2.496-.026-.182-.168-.334-.267-.318-.309.051-.438.033-.865.036l-1.077-.003c-.701-.015-.979-.045-1.184-.085" style="fill:none;stroke:#000;stroke-width:.17px" transform="matrix(.83273 -.0871 .09569 .91488 -28.428 -40.166)"/><path d="M49.008 52.12c-.129.209-.15.494-.211.846-.022.226-.029.238-.064.548-.04.347-.128.851.064 1.204.163.301 1.279.355 1.501.355l.946-.001c.604 0 1.012.041 1.209-.298.173-.296.134-.759.119-.906-.034-.322-.07-.69-.119-1.006-.028-.181-.119-.553-.296-.754-.106-.12-.362-.215-.785-.218l-1.432-.01c-.524-.003-.781-.005-.932.24" style="fill:none;stroke:#000;stroke-width:.22px" transform="matrix(.83273 -.0871 .04698 .44915 -26.15 -18.382)"/><path d="M49.794 50.425c0-.071-.032-.128-.072-.128h-.143c-.04 0-.072.057-.072.128v3.227c0 .07.032.127.072.127h.143c.04 0 .072-.057.072-.127z" style="fill:none;stroke:#000;stroke-width:.17px" transform="matrix(1.09871 -.0101 -.00688 .61715 -36.522 -28.524)"/><path d="M49.794 50.438c0-.078-.032-.141-.072-.141h-.143c-.04 0-.072.063-.072.141v3.2c0 .078.032.141.072.141h.143c.04 0 .072-.063.072-.141z" style="fill:none;stroke:#000;stroke-width:.16px" transform="matrix(1.18674 -.18235 .0991 .60315 -44.327 -19.438)"/><path d="M49.66 52.461c.115-.113.291-.116.583-.116h.576c.205 0 .397-.005.532.11.155.132.163.411.17.565l.086 1.182h-2.193l.109-1.366c.013-.133.047-.287.137-.375" style="fill:none;stroke:#000;stroke-width:.21px" transform="matrix(.6752 -.07062 .08027 .76746 -19.594 -33.559)"/><path d="m48.336 53.833.619.204c.098.036.51.138.614.152.114.016.327.01.504.01l.644-.01c.136-.002.527-.002.63-.02.111-.019.358-.054.456-.083l.718-.193" style="fill:none;stroke:#000;stroke-width:.19px" transform="matrix(.80958 -.08467 .08233 .78712 -26.423 -33.889)"/><path d="m52.49 53.655.356.036c.112.018.25.04.301.106s.117.332.167.591l.091.612c.017.174.048.319-.049.479-.084.141-.229.174-.454.205-.136.019-.31.012-.472.014.118-.265.143-.747.115-1.12a36 36 0 0 1-.055-.923" style="fill:none;stroke:#000;stroke-width:.2px" transform="matrix(.77913 -.08149 .0741 .70853 -24.33 -29.81)"/><path d="m52.478 53.652.365.031c.106.006.305.025.343.063.051.05.078.383.128.642l.091.612c.017.174.037.381-.059.502-.102.127-.238.175-.494.184-.137.005-.317.027-.592-.033.152-.224.238-.496.26-1.061.006-.18.011-.529-.042-.94" style="fill:none;stroke:#000;stroke-width:.2px" transform="matrix(-.77913 .08149 .0741 .70853 54.045 -38.012)"/><path d="M49.387 55.782c.267-.252.493-.442 1.02-.441.61.002.882.285 1.109.481z" style="fill:none;stroke:#000;stroke-width:.19px" transform="matrix(.80958 -.08467 .08233 .78712 -26.457 -33.866)"/><path d="M49.893 49.083c-.016-.184-.076-.337.048-.445.109-.095.81-.112.947-.002.144.114.096.287.065.467z" style="fill:none;stroke:#000;stroke-width:.18px" transform="matrix(.80958 -.08467 .08233 .78712 -26.397 -33.872)"/></svg>